<svg width="32" height="31" viewBox="0 0 32 31" fill="none" xmlns="http://www.w3.org/2000/svg">
<path d="M17.1343 17.3C17.1343 15.367 18.7018 13.8 20.6354 13.8C22.569 13.8 24.1365 15.367 24.1365 17.3C24.1365 19.233 22.569 20.8 20.6354 20.8C18.7018 20.8 17.1343 19.233 17.1343 17.3ZM10.1322 19.4C12.4525 19.4 14.3335 17.5196 14.3335 15.2C14.3335 12.8804 12.4525 11 10.1322 11C7.81193 11 5.93095 12.8804 5.93095 15.2C5.93095 17.5196 7.81193 19.4 10.1322 19.4ZM17.7645 24.524C17.052 23.0972 15.5926 22.1969 13.9974 22.2H6.26705C4.67183 22.1969 3.21245 23.0972 2.49992 24.524L0.483306 28.57C0.264883 29.0033 0.286483 29.5188 0.540392 29.9324C0.7943 30.3459 1.24431 30.5985 1.72968 30.6H18.5348C19.0201 30.5985 19.4701 30.3459 19.7241 29.9324C19.978 29.5188 19.9996 29.0033 19.7811 28.57L17.7645 24.524ZM28.1837 28.57L26.8533 25.91C26.1391 24.4931 24.6872 23.5995 23.1001 23.6H20.4253L22.2879 27.324C22.7996 28.3423 22.8754 29.5247 22.498 30.6H26.9373C27.4227 30.5985 27.8727 30.3459 28.1266 29.9324C28.3805 29.5188 28.4021 29.0033 28.1837 28.57Z" fill="#6CE9B3"/>
<path d="M25.8461 4.15373H23.3846C22.7048 4.15373 22.1538 4.70477 22.1538 5.3845C22.1538 6.06424 22.7048 6.61527 23.3846 6.61527H25.8461V9.07681C25.8461 9.75655 26.3972 10.3076 27.0769 10.3076C27.7566 10.3076 28.3077 9.75655 28.3077 9.07681V6.61527H30.7692C31.4489 6.61527 32 6.06424 32 5.3845C32 4.70477 31.4489 4.15373 30.7692 4.15373H28.3077V1.6922C28.3077 1.01246 27.7566 0.461426 27.0769 0.461426C26.3972 0.461426 25.8461 1.01246 25.8461 1.6922V4.15373Z" fill="#6CE9B3"/>
</svg>
