<svg width="32" height="25" viewBox="0 0 32 25" fill="none" xmlns="http://www.w3.org/2000/svg">
<path fill-rule="evenodd" clip-rule="evenodd" d="M11.6363 0H29.0909C30.6976 0 32 1.2735 32 2.84444V21.3333C32 22.9043 30.6976 24.1778 29.0909 24.1778H11.6363H8.72721H2.90909C1.30244 24.1778 0 22.9043 0 21.3333V2.84444C0 1.2735 1.30244 0 2.90909 0H8.72721H11.6363ZM8.72721 2.84453H2.90898V7.1112H8.72721V2.84453ZM11.6363 7.1112V2.84453H29.0908V7.1112H11.6363ZM8.72721 9.95564H2.90898V14.2221H8.72721V9.95564ZM11.6363 14.2221V9.95564H29.0908V14.2221H11.6363ZM8.72721 17.0666H2.90898V21.3334H8.72721V17.0666ZM11.6363 21.3334V17.0666H29.0908V21.3334H11.6363Z" fill="#6CE9B3"/>
</svg>
