<svg width="40" height="40" viewBox="0 0 40 40" fill="none" xmlns="http://www.w3.org/2000/svg">
<path fill-rule="evenodd" clip-rule="evenodd" d="M7.67297 5.74219C7.67297 6.80853 6.80853 7.67297 5.74219 7.67297C4.67586 7.67297 3.81142 6.80853 3.81142 5.74219C3.81142 4.67586 4.67586 3.81142 5.74219 3.81142C6.80853 3.81142 7.67297 4.67586 7.67297 5.74219ZM11.4844 5.74219C11.4844 8.91352 8.91352 11.4844 5.74219 11.4844C2.57087 11.4844 0 8.91352 0 5.74219C0 2.57087 2.57087 0 5.74219 0C8.91352 0 11.4844 2.57087 11.4844 5.74219ZM36.1886 19.8767C36.1886 20.9431 35.3241 21.8075 34.2578 21.8075C33.1915 21.8075 32.327 20.9431 32.327 19.8767C32.327 18.8104 33.1915 17.946 34.2578 17.946C35.3241 17.946 36.1886 18.8104 36.1886 19.8767ZM40 19.8767C40 23.0481 37.4291 25.6189 34.2578 25.6189C31.0865 25.6189 28.5156 23.0481 28.5156 19.8767C28.5156 16.7054 31.0865 14.1345 34.2578 14.1345C37.4291 14.1345 40 16.7054 40 19.8767ZM29.0653 28.722H39.5019V32.1599H29.0653V28.722ZM39.4505 35.7564H29.0139V39.1942H39.4505V35.7564ZM14.6616 25.0048V14.5683H18.0994V25.0048H14.6616ZM21.696 14.6197V25.0562H25.1338V14.6197H21.696ZM0.506089 39.1428L0.506089 28.7063L3.94392 28.7063L3.94392 39.1428H0.506089ZM7.54045 28.7577L7.54045 39.1942H10.9783L10.9783 28.7577H7.54045ZM29.0217 10.9347V0.498153L32.4595 0.498153V10.9347H29.0217ZM36.0561 0.549565V10.9861H39.4939V0.549565L36.0561 0.549565ZM0.549715 14.584H10.9863V18.0219H0.549715V14.584ZM10.9348 21.6184H0.498291V25.0562H10.9348V21.6184Z" fill="#75FFC4"/>
</svg>
